<svg id="visual" viewBox="0 0 900 900" width="900" height="900" xmlns="http://www.w3.org/2000/svg" xmlns:xlink="http://www.w3.org/1999/xlink" version="1.1"><path d="M0 421L21.5 435.8C43 450.7 86 480.3 128.8 495.3C171.7 510.3 214.3 510.7 257.2 501.5C300 492.3 343 473.7 385.8 475.5C428.7 477.3 471.3 499.7 514.2 503C557 506.3 600 490.7 642.8 485.5C685.7 480.3 728.3 485.7 771.2 489.8C814 494 857 497 878.5 498.5L900 500L900 901L878.5 901C857 901 814 901 771.2 901C728.3 901 685.7 901 642.8 901C600 901 557 901 514.2 901C471.3 901 428.7 901 385.8 901C343 901 300 901 257.2 901C214.3 901 171.7 901 128.8 901C86 901 43 901 21.5 901L0 901Z" fill="#ffadee"></path><path d="M0 638L21.5 626.3C43 614.7 86 591.3 128.8 585.5C171.7 579.7 214.3 591.3 257.2 589.7C300 588 343 573 385.8 563.3C428.7 553.7 471.3 549.3 514.2 557.7C557 566 600 587 642.8 596.8C685.7 606.7 728.3 605.3 771.2 613.5C814 621.7 857 639.3 878.5 648.2L900 657L900 901L878.5 901C857 901 814 901 771.2 901C728.3 901 685.7 901 642.8 901C600 901 557 901 514.2 901C471.3 901 428.7 901 385.8 901C343 901 300 901 257.2 901C214.3 901 171.7 901 128.8 901C86 901 43 901 21.5 901L0 901Z" fill="#fe8ef4"></path><path d="M0 739L21.5 739.5C43 740 86 741 128.8 737.7C171.7 734.3 214.3 726.7 257.2 735C300 743.3 343 767.7 385.8 779.7C428.7 791.7 471.3 791.3 514.2 782.8C557 774.3 600 757.7 642.8 759.3C685.7 761 728.3 781 771.2 770.8C814 760.7 857 720.3 878.5 700.2L900 680L900 901L878.5 901C857 901 814 901 771.2 901C728.3 901 685.7 901 642.8 901C600 901 557 901 514.2 901C471.3 901 428.7 901 385.8 901C343 901 300 901 257.2 901C214.3 901 171.7 901 128.8 901C86 901 43 901 21.5 901L0 901Z" fill="#f86cfd"></path></svg>