<svg id="visual" viewBox="0 0 1400 600" width="1400" height="600" xmlns="http://www.w3.org/2000/svg" xmlns:xlink="http://www.w3.org/1999/xlink" version="1.1"><path d="M0 451L26 451.7C52 452.3 104 453.7 155.8 444.2C207.7 434.7 259.3 414.3 311.2 403.5C363 392.7 415 391.3 466.8 411.3C518.7 431.3 570.3 472.7 622.2 481.2C674 489.7 726 465.3 777.8 447.8C829.7 430.3 881.3 419.7 933.2 430.7C985 441.7 1037 474.3 1088.8 478C1140.7 481.7 1192.3 456.3 1244.2 450C1296 443.7 1348 456.3 1374 462.7L1400 469L1400 601L1374 601C1348 601 1296 601 1244.2 601C1192.3 601 1140.7 601 1088.8 601C1037 601 985 601 933.2 601C881.3 601 829.7 601 777.8 601C726 601 674 601 622.2 601C570.3 601 518.7 601 466.8 601C415 601 363 601 311.2 601C259.3 601 207.7 601 155.8 601C104 601 52 601 26 601L0 601Z" fill="#eab2ff" stroke-linecap="round" stroke-linejoin="miter"></path></svg>